<?xml version="1.0" standalone="no"?>
<!DOCTYPE svg PUBLIC "-//W3C//DTD SVG 20010904//EN"
 "http://www.w3.org/TR/2001/REC-SVG-20010904/DTD/svg10.dtd">
<svg version="1.0" xmlns="http://www.w3.org/2000/svg"
 width="70.000000pt" height="70.000000pt" viewBox="0 0 70.000000 70.000000"
 preserveAspectRatio="xMidYMid meet">
<metadata>
Created by potrace 1.14, written by Peter Selinger 2001-2017
</metadata>
<g transform="translate(0.000000,70.000000) scale(0.100000,-0.100000)"
fill="#000000" stroke="none">
<path d="M217 563 c-4 -3 -7 -15 -7 -25 0 -16 10 -18 95 -18 52 0 95 -2 95 -4
0 -3 -43 -72 -95 -155 -56 -88 -95 -161 -95 -176 l0 -25 136 0 c135 0 135 0
132 23 -3 21 -8 22 -100 25 -54 1 -98 5 -98 7 0 3 43 72 95 153 95 149 109
184 79 196 -21 8 -229 8 -237 -1z"/>
</g>
</svg>
